<?xml version="1.0" standalone="no"?>
<!DOCTYPE svg PUBLIC "-//W3C//DTD SVG 20010904//EN"
 "http://www.w3.org/TR/2001/REC-SVG-20010904/DTD/svg10.dtd">
<svg version="1.0" xmlns="http://www.w3.org/2000/svg"
 width="186.000000pt" height="198.000000pt" viewBox="0 0 186.000000 198.000000"
 preserveAspectRatio="xMidYMid meet">

<g transform="translate(0.000000,198.000000) scale(0.100000,-0.100000)"
fill="#000000" stroke="none">
<path d="M752 1724 c-18 -4 -21 -10 -16 -30 8 -30 -2 -30 -45 -1 -29 20 -41
22 -80 15 -25 -4 -59 -10 -75 -13 -39 -6 -128 -32 -192 -56 l-52 -20 11 -34
c9 -32 27 -48 27 -25 0 18 38 30 64 20 45 -17 31 -90 -17 -90 -10 0 -15 -4
-12 -10 10 -15 21 -12 53 15 23 19 37 24 61 19 17 -4 32 -9 32 -13 7 -37 1
-57 -19 -67 -21 -10 -22 -12 -5 -18 13 -5 25 1 43 22 37 43 65 49 86 17 18
-28 44 -34 44 -9 0 20 24 44 45 44 9 0 27 -11 41 -25 31 -31 55 -33 26 -2 -23
25 -28 57 -12 73 17 17 67 4 78 -19 10 -21 11 -21 11 4 1 15 -6 32 -14 39 -29
24 -29 51 0 76 32 27 49 23 66 -18 9 -23 10 -35 1 -49 -10 -15 -7 -21 15 -39
23 -18 25 -23 15 -45 -10 -21 -19 -25 -54 -26 -40 -1 -41 -1 -16 -10 16 -6 29
-20 33 -37 3 -15 17 -38 29 -52 32 -35 46 -82 46 -156 l0 -64 -50 0 c-28 0
-65 -7 -82 -16 -17 -9 -52 -19 -77 -23 l-46 -7 43 -22 c40 -21 59 -41 27 -28
-9 3 -15 0 -15 -10 0 -9 6 -14 13 -11 6 2 29 -4 50 -15 20 -10 37 -14 37 -9 0
5 -9 13 -21 16 -11 4 -19 9 -16 11 2 2 21 -2 43 -10 21 -8 32 -15 24 -16 -13
0 -13 -2 1 -10 9 -5 49 -12 90 -14 41 -3 90 -10 109 -16 48 -14 134 -12 204 4
33 8 66 12 74 8 10 -3 13 -1 8 6 -5 8 -2 10 9 6 23 -9 44 24 45 68 l0 36 -62
-1 c-55 -2 -63 0 -66 18 -2 11 -11 28 -19 37 -26 29 -12 53 29 53 28 0 41 7
58 28 19 24 21 31 10 57 -7 16 -10 40 -6 53 7 31 -29 66 -77 74 -39 6 -60 -5
-79 -41 -9 -17 -8 -19 3 -8 7 6 23 12 35 12 27 0 33 -14 26 -60 -6 -42 -20
-63 -39 -56 -9 4 -13 -5 -13 -30 0 -62 -32 -104 -80 -104 -11 0 -20 -10 -24
-25 -8 -32 -55 -36 -63 -5 -3 10 -13 22 -23 25 -25 8 -33 35 -17 54 8 9 17 24
21 35 5 16 13 17 54 11 26 -4 53 -12 60 -17 18 -15 15 -45 -5 -57 -16 -9 -16
-10 3 -11 34 0 54 31 54 84 0 29 -4 45 -10 41 -20 -12 -50 6 -50 29 0 13 -7
29 -15 36 -32 27 -1 65 40 50 15 -5 27 1 46 22 35 36 82 38 133 3 40 -27 52
-30 61 -16 8 14 -32 111 -60 145 -22 27 -26 29 -48 17 -14 -7 -31 -24 -38 -37
-15 -30 -29 -31 -29 -2 0 20 -1 20 -19 4 -12 -11 -42 -20 -78 -22 -57 -5 -58
-5 -83 31 -14 20 -32 44 -40 53 -9 9 -22 31 -29 47 -7 17 -17 38 -23 48 -5 10
-7 21 -4 25 14 22 -16 33 -105 36 -52 3 -104 2 -117 0z"/>
<path d="M1090 1617 c0 -7 9 -18 20 -25 20 -12 21 -12 4 13 -18 28 -24 31 -24
12z"/>
<path d="M245 1492 c-3 -16 -1 -39 4 -53 8 -20 10 -16 10 29 1 58 -4 67 -14
24z"/>
<path d="M310 1456 c0 -20 7 -39 18 -47 15 -12 16 -12 4 2 -7 10 -10 28 -6 48
4 20 3 31 -5 31 -6 0 -11 -15 -11 -34z"/>
<path d="M410 1414 c0 -8 -14 -20 -31 -26 -29 -10 -29 -11 -13 -29 22 -24 41
-24 54 0 13 25 13 71 0 71 -5 0 -10 -7 -10 -16z"/>
<path d="M1407 1353 c-12 -11 -8 -78 5 -91 21 -21 28 -13 28 27 0 58 -13 84
-33 64z"/>
<path d="M346 1341 c-4 -5 -2 -12 3 -15 5 -4 12 -2 15 3 4 5 2 12 -3 15 -5 4
-12 2 -15 -3z"/>
<path d="M309 1303 c-13 -16 -12 -17 4 -4 9 7 17 15 17 17 0 8 -8 3 -21 -13z"/>
<path d="M1396 1224 c-9 -8 -16 -21 -16 -27 0 -8 4 -7 12 1 7 7 20 12 30 12
10 0 18 7 18 15 0 20 -24 19 -44 -1z"/>
<path d="M1360 1158 c0 -4 7 -8 15 -8 8 0 15 4 15 8 0 5 -7 9 -15 9 -8 0 -15
-4 -15 -9z"/>
<path d="M644 1094 c11 -7 23 -11 28 -8 5 3 18 -2 29 -12 11 -10 30 -19 42
-21 14 -2 5 7 -23 23 -50 29 -110 43 -76 18z"/>
<path d="M515 1080 c-11 -19 30 -59 88 -85 31 -14 62 -23 69 -19 6 4 8 3 4 -4
-7 -11 31 -28 41 -18 4 3 2 6 -4 6 -6 0 -14 11 -17 25 -4 15 -11 22 -20 19 -8
-3 -16 3 -19 15 -3 13 -11 19 -20 15 -8 -3 -17 2 -20 10 -4 9 -13 13 -20 10
-9 -3 -16 3 -20 15 -5 22 -50 30 -62 11z"/>
<path d="M440 1040 c0 -11 2 -20 5 -20 2 0 9 9 15 20 9 16 8 20 -5 20 -8 0
-15 -9 -15 -20z"/>
<path d="M469 1020 c-28 -49 -39 -51 -39 -5 0 19 -3 35 -7 35 -21 0 -121 -67
-160 -107 -44 -45 -85 -109 -97 -149 -7 -23 12 -34 64 -37 20 -2 25 -7 25 -29
1 -15 4 -30 8 -34 12 -12 8 -41 -8 -54 -12 -10 -22 -10 -39 -2 -21 9 -23 8
-18 -10 7 -29 61 -58 107 -58 36 0 45 5 78 44 41 49 44 56 23 56 -21 0 -65 50
-75 84 -4 17 -7 32 -6 34 1 1 19 -5 40 -14 32 -13 48 -14 94 -5 30 6 67 11 82
11 23 0 28 5 33 36 8 37 69 114 92 114 30 0 11 17 -38 35 -29 10 -71 36 -94
57 l-42 39 -23 -41z"/>
<path d="M728 996 c17 -36 42 -45 70 -27 11 6 7 13 -14 30 -14 11 -30 21 -35
21 -4 0 -14 3 -22 6 -13 5 -13 0 1 -30z"/>
<path d="M970 960 c0 -13 11 -13 30 0 12 8 11 10 -7 10 -13 0 -23 -4 -23 -10z"/>
<path d="M1400 940 c0 -5 9 -14 20 -20 17 -9 20 -8 20 10 0 13 -7 20 -20 20
-11 0 -20 -4 -20 -10z"/>
<path d="M970 798 c0 -89 -4 -138 -12 -146 -9 -9 -7 -13 6 -18 11 -4 22 -1 28
7 8 11 9 10 4 -3 -4 -15 1 -18 29 -18 32 0 34 -2 23 -20 -13 -21 -51 -40 -85
-43 -12 0 -19 -7 -17 -17 12 -61 15 -69 29 -64 9 4 21 -9 35 -40 65 -138 186
-197 342 -168 32 6 41 14 61 54 l23 46 -29 9 c-16 4 -45 27 -63 49 l-34 41 70
7 c38 4 74 5 79 2 4 -3 16 14 25 37 l16 42 26 -42 c29 -49 25 -47 59 -31 21 9
25 18 25 55 l0 44 -44 -6 c-54 -8 -103 14 -112 51 -4 17 -11 23 -21 20 -8 -3
-20 -6 -26 -6 -8 0 -11 -19 -9 -61 4 -56 3 -60 -15 -51 -10 6 -29 21 -41 35
-22 23 -26 24 -55 12 -18 -7 -47 -16 -65 -20 l-33 -7 20 41 21 41 -33 13 c-18
8 -47 31 -65 51 -31 36 -43 64 -21 51 6 -4 39 -4 75 0 l64 7 0 40 0 40 45 -36
45 -37 50 23 c68 31 66 59 -5 101 -48 29 -55 30 -185 32 -74 1 -156 5 -182 10
l-48 7 0 -134z"/>
<path d="M1340 925 c0 -8 29 -12 39 -5 9 5 4 8 -13 8 -14 0 -26 -2 -26 -3z"/>
<path d="M1400 906 c0 -2 7 -7 16 -10 8 -3 12 -2 9 4 -6 10 -25 14 -25 6z"/>
<path d="M1430 787 c0 -1 -9 -26 -19 -55 l-20 -53 22 3 c19 3 22 10 25 56 2
28 1 52 -2 52 -4 0 -6 -1 -6 -3z"/>
<path d="M500 761 c0 -5 7 -12 16 -15 24 -9 27 -7 10 9 -17 17 -26 19 -26 6z"/>
<path d="M370 755 c0 -15 18 -40 24 -34 3 3 -1 14 -9 25 -8 10 -14 15 -15 9z"/>
<path d="M450 751 c0 -5 7 -12 16 -15 27 -10 36 -7 20 9 -16 17 -36 20 -36 6z"/>
<path d="M415 730 c10 -11 24 -20 32 -20 11 0 11 4 1 20 -7 11 -21 20 -32 20
-18 0 -19 -1 -1 -20z"/>
<path d="M567 663 c-4 -3 -7 -11 -7 -17 0 -6 5 -5 12 2 6 6 9 14 7 17 -3 3 -9
2 -12 -2z"/>
<path d="M145 650 c-3 -5 -3 -20 0 -33 5 -19 12 -23 26 -20 13 4 18 11 15 20
-3 8 -6 21 -6 29 0 16 -26 19 -35 4z"/>
<path d="M530 640 c0 -5 -6 -10 -14 -10 -8 0 -17 -6 -19 -12 -4 -10 -8 -10
-15 1 -8 11 -11 9 -14 -10 -2 -13 -9 -23 -16 -21 -7 1 -12 -8 -12 -20 1 -20 2
-21 11 -6 5 10 30 29 54 44 25 14 42 30 39 35 -7 12 -14 11 -14 -1z"/>
<path d="M419 623 c-13 -16 -12 -17 4 -4 16 13 21 21 13 21 -2 0 -10 -8 -17
-17z"/>
<path d="M550 615 c-68 -46 -90 -67 -96 -91 -9 -34 -24 -20 -24 22 0 22 -4 34
-11 32 -18 -6 -58 -89 -65 -137 l-7 -44 38 26 c21 14 42 24 47 21 5 -4 15 2
22 11 9 13 20 15 49 10 20 -4 41 -13 48 -21 6 -8 17 -14 25 -14 17 0 48 -65
39 -80 -5 -8 6 -10 38 -5 28 4 60 2 82 -5 36 -12 39 -11 105 34 96 66 97 68
50 98 -35 23 -40 25 -52 11 -13 -17 -69 -43 -89 -43 -7 0 -9 9 -5 26 13 49 1
62 -53 56 -33 -3 -58 1 -80 13 l-33 17 26 13 c14 8 30 17 36 20 6 3 -3 17 -19
31 -34 28 -27 28 -71 -1z"/>
<path d="M167 528 c20 -69 33 -94 79 -146 36 -42 103 -92 124 -92 18 0 10 17
-13 27 -55 25 -68 111 -31 199 l14 34 -32 0 c-18 0 -46 7 -62 15 -15 8 -43 15
-62 15 l-33 0 16 -52z"/>
<path d="M634 314 c3 -9 6 -20 6 -25 0 -16 29 -10 39 9 6 9 11 11 11 5 0 -10
6 -10 25 -1 40 18 29 28 -31 28 -47 0 -55 -3 -50 -16z"/>
</g>
</svg>
